<mxfile host="app.diagrams.net" agent="Mozilla/5.0 (Windows NT 10.0; Win64; x64) AppleWebKit/537.36 (KHTML, like Gecko) Chrome/140.0.0.0 Safari/537.36 Edg/140.0.0.0" version="28.2.5">
  <diagram name="Page-1" id="AglB4xnbbrw0YyVzVnAK">
    <mxGraphModel dx="1338" dy="724" grid="1" gridSize="10" guides="1" tooltips="1" connect="1" arrows="1" fold="1" page="1" pageScale="1" pageWidth="4681" pageHeight="3300" math="0" shadow="0">
      <root>
        <mxCell id="0" />
        <mxCell id="1" parent="0" />
        <mxCell id="J9VA7IRSwFvSvSfeFG77-1" value="&amp;nbsp; &amp;nbsp;Datacenter - empresa X" style="rounded=1;whiteSpace=wrap;html=1;dashed=1;fillColor=none;arcSize=5;align=left;verticalAlign=top;" vertex="1" parent="1">
          <mxGeometry x="180" y="220" width="570" height="630" as="geometry" />
        </mxCell>
        <mxCell id="J9VA7IRSwFvSvSfeFG77-2" value="&lt;h1 style=&quot;margin-top: 0px;&quot;&gt;CASO PRÁCTICO&lt;/h1&gt;&lt;p&gt;Gestión de usuarios y tareas.&lt;/p&gt;" style="text;html=1;whiteSpace=wrap;overflow=hidden;rounded=0;" vertex="1" parent="1">
          <mxGeometry x="10" y="10" width="370" height="80" as="geometry" />
        </mxCell>
        <mxCell id="J9VA7IRSwFvSvSfeFG77-8" style="edgeStyle=orthogonalEdgeStyle;rounded=0;orthogonalLoop=1;jettySize=auto;html=1;endArrow=none;endFill=0;" edge="1" parent="1" source="J9VA7IRSwFvSvSfeFG77-7" target="J9VA7IRSwFvSvSfeFG77-3">
          <mxGeometry relative="1" as="geometry" />
        </mxCell>
        <mxCell id="J9VA7IRSwFvSvSfeFG77-15" value="https" style="edgeLabel;html=1;align=center;verticalAlign=middle;resizable=0;points=[];" vertex="1" connectable="0" parent="J9VA7IRSwFvSvSfeFG77-8">
          <mxGeometry x="-0.2651" y="1" relative="1" as="geometry">
            <mxPoint as="offset" />
          </mxGeometry>
        </mxCell>
        <mxCell id="J9VA7IRSwFvSvSfeFG77-19" style="edgeStyle=orthogonalEdgeStyle;rounded=0;orthogonalLoop=1;jettySize=auto;html=1;endArrow=none;endFill=0;" edge="1" parent="1" source="J9VA7IRSwFvSvSfeFG77-7" target="J9VA7IRSwFvSvSfeFG77-14">
          <mxGeometry relative="1" as="geometry" />
        </mxCell>
        <mxCell id="J9VA7IRSwFvSvSfeFG77-20" value="TCP: 5443" style="edgeLabel;html=1;align=center;verticalAlign=middle;resizable=0;points=[];" vertex="1" connectable="0" parent="J9VA7IRSwFvSvSfeFG77-19">
          <mxGeometry x="-0.1947" y="4" relative="1" as="geometry">
            <mxPoint as="offset" />
          </mxGeometry>
        </mxCell>
        <mxCell id="J9VA7IRSwFvSvSfeFG77-7" value="Entorno de gestión de contenedores" style="rounded=1;whiteSpace=wrap;html=1;dashed=1;fillColor=none;arcSize=5;align=center;verticalAlign=top;fontStyle=1" vertex="1" parent="1">
          <mxGeometry x="324" y="490" width="270" height="150" as="geometry" />
        </mxCell>
        <mxCell id="J9VA7IRSwFvSvSfeFG77-3" value="Balanceador de cargas" style="image;sketch=0;aspect=fixed;html=1;points=[];align=center;fontSize=12;image=img/lib/mscae/Load_Balancer_feature.svg;" vertex="1" parent="1">
          <mxGeometry x="440" y="372" width="40" height="40" as="geometry" />
        </mxCell>
        <mxCell id="J9VA7IRSwFvSvSfeFG77-9" style="edgeStyle=orthogonalEdgeStyle;rounded=0;orthogonalLoop=1;jettySize=auto;html=1;endArrow=none;endFill=0;" edge="1" parent="1" source="J9VA7IRSwFvSvSfeFG77-4" target="J9VA7IRSwFvSvSfeFG77-3">
          <mxGeometry relative="1" as="geometry" />
        </mxCell>
        <mxCell id="J9VA7IRSwFvSvSfeFG77-17" value="https" style="edgeLabel;html=1;align=center;verticalAlign=middle;resizable=0;points=[];" vertex="1" connectable="0" parent="J9VA7IRSwFvSvSfeFG77-9">
          <mxGeometry x="0.2039" y="2" relative="1" as="geometry">
            <mxPoint as="offset" />
          </mxGeometry>
        </mxCell>
        <mxCell id="J9VA7IRSwFvSvSfeFG77-4" value="Firewall" style="image;aspect=fixed;html=1;points=[];align=center;fontSize=12;image=img/lib/azure2/networking/Web_Application_Firewall_Policies_WAF.svg;" vertex="1" parent="1">
          <mxGeometry x="440" y="238" width="40" height="40" as="geometry" />
        </mxCell>
        <mxCell id="J9VA7IRSwFvSvSfeFG77-5" value="" style="image;aspect=fixed;html=1;points=[];align=center;fontSize=12;image=img/lib/azure2/app_services/App_Service_Plans.svg;" vertex="1" parent="1">
          <mxGeometry x="304" y="470" width="40" height="40" as="geometry" />
        </mxCell>
        <mxCell id="J9VA7IRSwFvSvSfeFG77-6" value="gestion&lt;div&gt;usuarios&lt;/div&gt;" style="image;aspect=fixed;html=1;points=[];align=center;fontSize=12;image=img/lib/azure2/app_services/App_Services.svg;" vertex="1" parent="1">
          <mxGeometry x="384" y="545" width="40" height="40" as="geometry" />
        </mxCell>
        <mxCell id="J9VA7IRSwFvSvSfeFG77-11" style="edgeStyle=orthogonalEdgeStyle;rounded=0;orthogonalLoop=1;jettySize=auto;html=1;endArrow=none;endFill=0;" edge="1" parent="1" source="J9VA7IRSwFvSvSfeFG77-10" target="J9VA7IRSwFvSvSfeFG77-4">
          <mxGeometry relative="1" as="geometry" />
        </mxCell>
        <mxCell id="J9VA7IRSwFvSvSfeFG77-16" value="https" style="edgeLabel;html=1;align=center;verticalAlign=middle;resizable=0;points=[];" vertex="1" connectable="0" parent="J9VA7IRSwFvSvSfeFG77-11">
          <mxGeometry x="-0.3831" y="4" relative="1" as="geometry">
            <mxPoint y="20" as="offset" />
          </mxGeometry>
        </mxCell>
        <mxCell id="J9VA7IRSwFvSvSfeFG77-10" value="Internet" style="image;aspect=fixed;perimeter=ellipsePerimeter;html=1;align=center;shadow=0;dashed=0;spacingTop=3;image=img/lib/active_directory/internet_globe.svg;" vertex="1" parent="1">
          <mxGeometry x="436" y="60" width="50" height="50" as="geometry" />
        </mxCell>
        <mxCell id="J9VA7IRSwFvSvSfeFG77-12" value="gestion&lt;div&gt;tareas&lt;/div&gt;" style="image;aspect=fixed;html=1;points=[];align=center;fontSize=12;image=img/lib/azure2/app_services/App_Services.svg;" vertex="1" parent="1">
          <mxGeometry x="504" y="545" width="40" height="40" as="geometry" />
        </mxCell>
        <mxCell id="J9VA7IRSwFvSvSfeFG77-14" value="Motor de bases de datos" style="rounded=1;whiteSpace=wrap;html=1;dashed=1;fillColor=none;arcSize=5;align=center;verticalAlign=top;fontStyle=1" vertex="1" parent="1">
          <mxGeometry x="325" y="691" width="270" height="150" as="geometry" />
        </mxCell>
        <mxCell id="J9VA7IRSwFvSvSfeFG77-13" value="" style="image;aspect=fixed;html=1;points=[];align=center;fontSize=12;image=img/lib/azure2/databases/Azure_Database_PostgreSQL_Server.svg;" vertex="1" parent="1">
          <mxGeometry x="304" y="681" width="40" height="53.33" as="geometry" />
        </mxCell>
        <mxCell id="J9VA7IRSwFvSvSfeFG77-18" value="Esquema:&lt;div&gt;&lt;br&gt;&lt;/div&gt;&lt;div&gt;&amp;lt;&amp;lt;usuario&amp;gt;&amp;gt;&lt;/div&gt;" style="rounded=1;whiteSpace=wrap;html=1;fillColor=#dae8fc;strokeColor=#6c8ebf;align=left;" vertex="1" parent="1">
          <mxGeometry x="366" y="751" width="120" height="60" as="geometry" />
        </mxCell>
      </root>
    </mxGraphModel>
  </diagram>
</mxfile>
